<?xml version="1.0" encoding="utf-8" standalone="no"?>
<!DOCTYPE svg PUBLIC "-//W3C//DTD SVG 1.1//EN"
  "http://www.w3.org/Graphics/SVG/1.1/DTD/svg11.dtd">
<svg xmlns:xlink="http://www.w3.org/1999/xlink" width="349.2pt" height="360.123938pt" viewBox="0 0 349.2 360.123938" xmlns="http://www.w3.org/2000/svg" version="1.1">
 <metadata>
  <rdf:RDF xmlns:dc="http://purl.org/dc/elements/1.1/" xmlns:cc="http://creativecommons.org/ns#" xmlns:rdf="http://www.w3.org/1999/02/22-rdf-syntax-ns#">
   <cc:Work>
    <dc:type rdf:resource="http://purl.org/dc/dcmitype/StillImage"/>
    <dc:date>2026-09-08T18:18:06.879729</dc:date>
    <dc:format>image/svg+xml</dc:format>
    <dc:creator>
     <cc:Agent>
      <dc:title>Matplotlib v3.5.2, https://matplotlib.org/</dc:title>
     </cc:Agent>
    </dc:creator>
   </cc:Work>
  </rdf:RDF>
 </metadata>
 <defs>
  <style type="text/css">*{stroke-linejoin: round; stroke-linecap: butt}</style>
 </defs>
 <g id="figure_1">
  <g id="patch_1">
   <path d="M 0 360.123938 
L 349.2 360.123938 
L 349.2 0 
L 0 0 
z
" style="fill: #0f172a"/>
  </g>
  <g id="axes_1">
   <g id="line2d_1">
    <path d="M 22.418182 161.262125 
L 326.781818 161.262125 
" clip-path="url(#p68bb422133)" style="fill: none; stroke: #1e3a8a; stroke-opacity: 0.5; stroke-width: 15; stroke-linecap: square"/>
   </g>
   <g id="line2d_2">
    <path d="M 98.509091 100.782125 
L 98.509091 302.382125 
" clip-path="url(#p68bb422133)" style="fill: none; stroke: #38bdf8; stroke-width: 2.5; stroke-linecap: square"/>
   </g>
   <g id="line2d_3">
    <path d="M 98.509091 302.382125 
L 250.690909 302.382125 
L 250.690909 100.782125 
" clip-path="url(#p68bb422133)" style="fill: none; stroke-dasharray: 7.4,3.2; stroke-dashoffset: 0; stroke: #34d399; stroke-width: 2"/>
   </g>
   <g id="text_1">
    <!-- Congruence of Triangles • #34 -->
    <g style="fill: #94a3b8" transform="translate(88.475 14.798437)scale(0.1 -0.1)">
     <defs>
      <path id="DejaVuSans-Bold-43" d="M 4288 256 
Q 3956 84 3597 -3 
Q 3238 -91 2847 -91 
Q 1681 -91 1000 561 
Q 319 1213 319 2328 
Q 319 3447 1000 4098 
Q 1681 4750 2847 4750 
Q 3238 4750 3597 4662 
Q 3956 4575 4288 4403 
L 4288 3438 
Q 3953 3666 3628 3772 
Q 3303 3878 2944 3878 
Q 2300 3878 1931 3465 
Q 1563 3053 1563 2328 
Q 1563 1606 1931 1193 
Q 2300 781 2944 781 
Q 3303 781 3628 887 
Q 3953 994 4288 1222 
L 4288 256 
z
" transform="scale(0.015625)"/>
      <path id="DejaVuSans-Bold-6f" d="M 2203 2784 
Q 1831 2784 1636 2517 
Q 1441 2250 1441 1747 
Q 1441 1244 1636 976 
Q 1831 709 2203 709 
Q 2569 709 2762 976 
Q 2956 1244 2956 1747 
Q 2956 2250 2762 2517 
Q 2569 2784 2203 2784 
z
M 2203 3584 
Q 3106 3584 3614 3096 
Q 4122 2609 4122 1747 
Q 4122 884 3614 396 
Q 3106 -91 2203 -91 
Q 1297 -91 786 396 
Q 275 884 275 1747 
Q 275 2609 786 3096 
Q 1297 3584 2203 3584 
z
" transform="scale(0.015625)"/>
      <path id="DejaVuSans-Bold-6e" d="M 4056 2131 
L 4056 0 
L 2931 0 
L 2931 347 
L 2931 1631 
Q 2931 2084 2911 2256 
Q 2891 2428 2841 2509 
Q 2775 2619 2662 2680 
Q 2550 2741 2406 2741 
Q 2056 2741 1856 2470 
Q 1656 2200 1656 1722 
L 1656 0 
L 538 0 
L 538 3500 
L 1656 3500 
L 1656 2988 
Q 1909 3294 2193 3439 
Q 2478 3584 2822 3584 
Q 3428 3584 3742 3212 
Q 4056 2841 4056 2131 
z
" transform="scale(0.015625)"/>
      <path id="DejaVuSans-Bold-67" d="M 2919 594 
Q 2688 288 2409 144 
Q 2131 0 1766 0 
Q 1125 0 706 504 
Q 288 1009 288 1791 
Q 288 2575 706 3076 
Q 1125 3578 1766 3578 
Q 2131 3578 2409 3434 
Q 2688 3291 2919 2981 
L 2919 3500 
L 4044 3500 
L 4044 353 
Q 4044 -491 3511 -936 
Q 2978 -1381 1966 -1381 
Q 1638 -1381 1331 -1331 
Q 1025 -1281 716 -1178 
L 716 -306 
Q 1009 -475 1290 -558 
Q 1572 -641 1856 -641 
Q 2406 -641 2662 -400 
Q 2919 -159 2919 353 
L 2919 594 
z
M 2181 2772 
Q 1834 2772 1640 2515 
Q 1447 2259 1447 1791 
Q 1447 1309 1634 1061 
Q 1822 813 2181 813 
Q 2531 813 2725 1069 
Q 2919 1325 2919 1791 
Q 2919 2259 2725 2515 
Q 2531 2772 2181 2772 
z
" transform="scale(0.015625)"/>
      <path id="DejaVuSans-Bold-72" d="M 3138 2547 
Q 2991 2616 2845 2648 
Q 2700 2681 2553 2681 
Q 2122 2681 1889 2404 
Q 1656 2128 1656 1613 
L 1656 0 
L 538 0 
L 538 3500 
L 1656 3500 
L 1656 2925 
Q 1872 3269 2151 3426 
Q 2431 3584 2822 3584 
Q 2878 3584 2943 3579 
Q 3009 3575 3134 3559 
L 3138 2547 
z
" transform="scale(0.015625)"/>
      <path id="DejaVuSans-Bold-75" d="M 500 1363 
L 500 3500 
L 1625 3500 
L 1625 3150 
Q 1625 2866 1622 2436 
Q 1619 2006 1619 1863 
Q 1619 1441 1641 1255 
Q 1663 1069 1716 984 
Q 1784 875 1895 815 
Q 2006 756 2150 756 
Q 2500 756 2700 1025 
Q 2900 1294 2900 1772 
L 2900 3500 
L 4019 3500 
L 4019 0 
L 2900 0 
L 2900 506 
Q 2647 200 2364 54 
Q 2081 -91 1741 -91 
Q 1134 -91 817 281 
Q 500 653 500 1363 
z
" transform="scale(0.015625)"/>
      <path id="DejaVuSans-Bold-65" d="M 4031 1759 
L 4031 1441 
L 1416 1441 
Q 1456 1047 1700 850 
Q 1944 653 2381 653 
Q 2734 653 3104 758 
Q 3475 863 3866 1075 
L 3866 213 
Q 3469 63 3072 -14 
Q 2675 -91 2278 -91 
Q 1328 -91 801 392 
Q 275 875 275 1747 
Q 275 2603 792 3093 
Q 1309 3584 2216 3584 
Q 3041 3584 3536 3087 
Q 4031 2591 4031 1759 
z
M 2881 2131 
Q 2881 2450 2695 2645 
Q 2509 2841 2209 2841 
Q 1884 2841 1681 2658 
Q 1478 2475 1428 2131 
L 2881 2131 
z
" transform="scale(0.015625)"/>
      <path id="DejaVuSans-Bold-63" d="M 3366 3391 
L 3366 2478 
Q 3138 2634 2908 2709 
Q 2678 2784 2431 2784 
Q 1963 2784 1702 2511 
Q 1441 2238 1441 1747 
Q 1441 1256 1702 982 
Q 1963 709 2431 709 
Q 2694 709 2930 787 
Q 3166 866 3366 1019 
L 3366 103 
Q 3103 6 2833 -42 
Q 2563 -91 2291 -91 
Q 1344 -91 809 395 
Q 275 881 275 1747 
Q 275 2613 809 3098 
Q 1344 3584 2291 3584 
Q 2566 3584 2833 3536 
Q 3100 3488 3366 3391 
z
" transform="scale(0.015625)"/>
      <path id="DejaVuSans-Bold-20" transform="scale(0.015625)"/>
      <path id="DejaVuSans-Bold-66" d="M 2841 4863 
L 2841 4128 
L 2222 4128 
Q 1984 4128 1890 4042 
Q 1797 3956 1797 3744 
L 1797 3500 
L 2753 3500 
L 2753 2700 
L 1797 2700 
L 1797 0 
L 678 0 
L 678 2700 
L 122 2700 
L 122 3500 
L 678 3500 
L 678 3744 
Q 678 4316 997 4589 
Q 1316 4863 1984 4863 
L 2841 4863 
z
" transform="scale(0.015625)"/>
      <path id="DejaVuSans-Bold-54" d="M 31 4666 
L 4331 4666 
L 4331 3756 
L 2784 3756 
L 2784 0 
L 1581 0 
L 1581 3756 
L 31 3756 
L 31 4666 
z
" transform="scale(0.015625)"/>
      <path id="DejaVuSans-Bold-69" d="M 538 3500 
L 1656 3500 
L 1656 0 
L 538 0 
L 538 3500 
z
M 538 4863 
L 1656 4863 
L 1656 3950 
L 538 3950 
L 538 4863 
z
" transform="scale(0.015625)"/>
      <path id="DejaVuSans-Bold-61" d="M 2106 1575 
Q 1756 1575 1579 1456 
Q 1403 1338 1403 1106 
Q 1403 894 1545 773 
Q 1688 653 1941 653 
Q 2256 653 2472 879 
Q 2688 1106 2688 1447 
L 2688 1575 
L 2106 1575 
z
M 3816 1997 
L 3816 0 
L 2688 0 
L 2688 519 
Q 2463 200 2181 54 
Q 1900 -91 1497 -91 
Q 953 -91 614 226 
Q 275 544 275 1050 
Q 275 1666 698 1953 
Q 1122 2241 2028 2241 
L 2688 2241 
L 2688 2328 
Q 2688 2594 2478 2717 
Q 2269 2841 1825 2841 
Q 1466 2841 1156 2769 
Q 847 2697 581 2553 
L 581 3406 
Q 941 3494 1303 3539 
Q 1666 3584 2028 3584 
Q 2975 3584 3395 3211 
Q 3816 2838 3816 1997 
z
" transform="scale(0.015625)"/>
      <path id="DejaVuSans-Bold-6c" d="M 538 4863 
L 1656 4863 
L 1656 0 
L 538 0 
L 538 4863 
z
" transform="scale(0.015625)"/>
      <path id="DejaVuSans-Bold-73" d="M 3272 3391 
L 3272 2541 
Q 2913 2691 2578 2766 
Q 2244 2841 1947 2841 
Q 1628 2841 1473 2761 
Q 1319 2681 1319 2516 
Q 1319 2381 1436 2309 
Q 1553 2238 1856 2203 
L 2053 2175 
Q 2913 2066 3209 1816 
Q 3506 1566 3506 1031 
Q 3506 472 3093 190 
Q 2681 -91 1863 -91 
Q 1516 -91 1145 -36 
Q 775 19 384 128 
L 384 978 
Q 719 816 1070 734 
Q 1422 653 1784 653 
Q 2113 653 2278 743 
Q 2444 834 2444 1013 
Q 2444 1163 2330 1236 
Q 2216 1309 1875 1350 
L 1678 1375 
Q 931 1469 631 1722 
Q 331 1975 331 2491 
Q 331 3047 712 3315 
Q 1094 3584 1881 3584 
Q 2191 3584 2531 3537 
Q 2872 3491 3272 3391 
z
" transform="scale(0.015625)"/>
      <path id="DejaVuSans-Bold-2022" d="M 922 2381 
Q 922 2613 1005 2816 
Q 1088 3019 1247 3175 
Q 1413 3334 1616 3417 
Q 1819 3500 2047 3500 
Q 2275 3500 2479 3415 
Q 2684 3331 2841 3175 
Q 3003 3013 3086 2811 
Q 3169 2609 3169 2381 
Q 3169 2150 3084 1945 
Q 3000 1741 2841 1581 
Q 2681 1422 2476 1337 
Q 2272 1253 2041 1253 
Q 1813 1253 1609 1337 
Q 1406 1422 1247 1581 
Q 1091 1741 1006 1945 
Q 922 2150 922 2381 
z
" transform="scale(0.015625)"/>
      <path id="DejaVuSans-Bold-23" d="M 2847 4594 
L 2547 3391 
L 3372 3391 
L 3675 4594 
L 4366 4594 
L 4063 3391 
L 4928 3391 
L 4928 2725 
L 3897 2725 
L 3681 1869 
L 4569 1869 
L 4569 1197 
L 3519 1197 
L 3219 0 
L 2528 0 
L 2828 1197 
L 2003 1197 
L 1703 0 
L 1006 0 
L 1306 1197 
L 434 1197 
L 434 1869 
L 1459 1869 
L 1678 2725 
L 794 2725 
L 794 3391 
L 1850 3391 
L 2150 4594 
L 2847 4594 
z
M 3200 2725 
L 2375 2725 
L 2156 1869 
L 2981 1869 
L 3200 2725 
z
" transform="scale(0.015625)"/>
      <path id="DejaVuSans-Bold-33" d="M 2981 2516 
Q 3453 2394 3698 2092 
Q 3944 1791 3944 1325 
Q 3944 631 3412 270 
Q 2881 -91 1863 -91 
Q 1503 -91 1142 -33 
Q 781 25 428 141 
L 428 1069 
Q 766 900 1098 814 
Q 1431 728 1753 728 
Q 2231 728 2486 893 
Q 2741 1059 2741 1369 
Q 2741 1688 2480 1852 
Q 2219 2016 1709 2016 
L 1228 2016 
L 1228 2791 
L 1734 2791 
Q 2188 2791 2409 2933 
Q 2631 3075 2631 3366 
Q 2631 3634 2415 3781 
Q 2200 3928 1806 3928 
Q 1516 3928 1219 3862 
Q 922 3797 628 3669 
L 628 4550 
Q 984 4650 1334 4700 
Q 1684 4750 2022 4750 
Q 2931 4750 3382 4451 
Q 3834 4153 3834 3553 
Q 3834 3144 3618 2883 
Q 3403 2622 2981 2516 
z
" transform="scale(0.015625)"/>
      <path id="DejaVuSans-Bold-34" d="M 2356 3675 
L 1038 1722 
L 2356 1722 
L 2356 3675 
z
M 2156 4666 
L 3494 4666 
L 3494 1722 
L 4159 1722 
L 4159 850 
L 3494 850 
L 3494 0 
L 2356 0 
L 2356 850 
L 288 850 
L 288 1881 
L 2156 4666 
z
" transform="scale(0.015625)"/>
     </defs>
     <use xlink:href="#DejaVuSans-Bold-43"/>
     <use xlink:href="#DejaVuSans-Bold-6f" x="73.388672"/>
     <use xlink:href="#DejaVuSans-Bold-6e" x="142.089844"/>
     <use xlink:href="#DejaVuSans-Bold-67" x="213.28125"/>
     <use xlink:href="#DejaVuSans-Bold-72" x="284.863281"/>
     <use xlink:href="#DejaVuSans-Bold-75" x="334.179688"/>
     <use xlink:href="#DejaVuSans-Bold-65" x="405.371094"/>
     <use xlink:href="#DejaVuSans-Bold-6e" x="473.193359"/>
     <use xlink:href="#DejaVuSans-Bold-63" x="544.384766"/>
     <use xlink:href="#DejaVuSans-Bold-65" x="603.662109"/>
     <use xlink:href="#DejaVuSans-Bold-20" x="671.484375"/>
     <use xlink:href="#DejaVuSans-Bold-6f" x="706.298828"/>
     <use xlink:href="#DejaVuSans-Bold-66" x="775"/>
     <use xlink:href="#DejaVuSans-Bold-20" x="818.505859"/>
     <use xlink:href="#DejaVuSans-Bold-54" x="853.320312"/>
     <use xlink:href="#DejaVuSans-Bold-72" x="910.533203"/>
     <use xlink:href="#DejaVuSans-Bold-69" x="959.849609"/>
     <use xlink:href="#DejaVuSans-Bold-61" x="994.126953"/>
     <use xlink:href="#DejaVuSans-Bold-6e" x="1061.607422"/>
     <use xlink:href="#DejaVuSans-Bold-67" x="1132.798828"/>
     <use xlink:href="#DejaVuSans-Bold-6c" x="1204.380859"/>
     <use xlink:href="#DejaVuSans-Bold-65" x="1238.658203"/>
     <use xlink:href="#DejaVuSans-Bold-73" x="1306.480469"/>
     <use xlink:href="#DejaVuSans-Bold-20" x="1366.001953"/>
     <use xlink:href="#DejaVuSans-Bold-2022" x="1400.816406"/>
     <use xlink:href="#DejaVuSans-Bold-20" x="1464.732422"/>
     <use xlink:href="#DejaVuSans-Bold-23" x="1499.546875"/>
     <use xlink:href="#DejaVuSans-Bold-33" x="1583.335938"/>
     <use xlink:href="#DejaVuSans-Bold-34" x="1652.916016"/>
    </g>
   </g>
   <g id="text_2">
    <!-- ~ ~ ~ RIVER ~ ~ ~ -->
    <g style="fill: #60a5fa" transform="translate(124.923437 169.326125)scale(0.1 -0.1)">
     <defs>
      <path id="DejaVuSans-7e" d="M 4684 2553 
L 4684 1997 
Q 4356 1750 4076 1644 
Q 3797 1538 3494 1538 
Q 3150 1538 2694 1722 
Q 2659 1734 2644 1741 
Q 2622 1750 2575 1766 
Q 2091 1959 1797 1959 
Q 1522 1959 1253 1839 
Q 984 1719 678 1459 
L 678 2016 
Q 1006 2263 1286 2370 
Q 1566 2478 1869 2478 
Q 2213 2478 2672 2291 
Q 2703 2278 2719 2272 
Q 2744 2263 2788 2247 
Q 3272 2053 3566 2053 
Q 3834 2053 4098 2172 
Q 4363 2291 4684 2553 
z
" transform="scale(0.015625)"/>
      <path id="DejaVuSans-20" transform="scale(0.015625)"/>
      <path id="DejaVuSans-52" d="M 2841 2188 
Q 3044 2119 3236 1894 
Q 3428 1669 3622 1275 
L 4263 0 
L 3584 0 
L 2988 1197 
Q 2756 1666 2539 1819 
Q 2322 1972 1947 1972 
L 1259 1972 
L 1259 0 
L 628 0 
L 628 4666 
L 2053 4666 
Q 2853 4666 3247 4331 
Q 3641 3997 3641 3322 
Q 3641 2881 3436 2590 
Q 3231 2300 2841 2188 
z
M 1259 4147 
L 1259 2491 
L 2053 2491 
Q 2509 2491 2742 2702 
Q 2975 2913 2975 3322 
Q 2975 3731 2742 3939 
Q 2509 4147 2053 4147 
L 1259 4147 
z
" transform="scale(0.015625)"/>
      <path id="DejaVuSans-49" d="M 628 4666 
L 1259 4666 
L 1259 0 
L 628 0 
L 628 4666 
z
" transform="scale(0.015625)"/>
      <path id="DejaVuSans-56" d="M 1831 0 
L 50 4666 
L 709 4666 
L 2188 738 
L 3669 4666 
L 4325 4666 
L 2547 0 
L 1831 0 
z
" transform="scale(0.015625)"/>
      <path id="DejaVuSans-45" d="M 628 4666 
L 3578 4666 
L 3578 4134 
L 1259 4134 
L 1259 2753 
L 3481 2753 
L 3481 2222 
L 1259 2222 
L 1259 531 
L 3634 531 
L 3634 0 
L 628 0 
L 628 4666 
z
" transform="scale(0.015625)"/>
     </defs>
     <use xlink:href="#DejaVuSans-7e"/>
     <use xlink:href="#DejaVuSans-20" x="83.789062"/>
     <use xlink:href="#DejaVuSans-7e" x="115.576172"/>
     <use xlink:href="#DejaVuSans-20" x="199.365234"/>
     <use xlink:href="#DejaVuSans-7e" x="231.152344"/>
     <use xlink:href="#DejaVuSans-20" x="314.941406"/>
     <use xlink:href="#DejaVuSans-52" x="346.728516"/>
     <use xlink:href="#DejaVuSans-49" x="416.210938"/>
     <use xlink:href="#DejaVuSans-56" x="445.703125"/>
     <use xlink:href="#DejaVuSans-45" x="514.111328"/>
     <use xlink:href="#DejaVuSans-52" x="577.294922"/>
     <use xlink:href="#DejaVuSans-20" x="646.777344"/>
     <use xlink:href="#DejaVuSans-7e" x="678.564453"/>
     <use xlink:href="#DejaVuSans-20" x="762.353516"/>
     <use xlink:href="#DejaVuSans-7e" x="794.140625"/>
     <use xlink:href="#DejaVuSans-20" x="877.929688"/>
     <use xlink:href="#DejaVuSans-7e" x="909.716797"/>
    </g>
   </g>
   <g id="text_3">
    <!-- Indirect River Measurement via Congruent △s -->
    <g style="fill: #f59e0b" transform="translate(45.83125 350.766125)scale(0.1 -0.1)">
     <defs>
      <path id="DejaVuSans-Bold-49" d="M 588 4666 
L 1791 4666 
L 1791 0 
L 588 0 
L 588 4666 
z
" transform="scale(0.015625)"/>
      <path id="DejaVuSans-Bold-64" d="M 2919 2988 
L 2919 4863 
L 4044 4863 
L 4044 0 
L 2919 0 
L 2919 506 
Q 2688 197 2409 53 
Q 2131 -91 1766 -91 
Q 1119 -91 703 423 
Q 288 938 288 1747 
Q 288 2556 703 3070 
Q 1119 3584 1766 3584 
Q 2128 3584 2408 3439 
Q 2688 3294 2919 2988 
z
M 2181 722 
Q 2541 722 2730 984 
Q 2919 1247 2919 1747 
Q 2919 2247 2730 2509 
Q 2541 2772 2181 2772 
Q 1825 2772 1636 2509 
Q 1447 2247 1447 1747 
Q 1447 1247 1636 984 
Q 1825 722 2181 722 
z
" transform="scale(0.015625)"/>
      <path id="DejaVuSans-Bold-74" d="M 1759 4494 
L 1759 3500 
L 2913 3500 
L 2913 2700 
L 1759 2700 
L 1759 1216 
Q 1759 972 1856 886 
Q 1953 800 2241 800 
L 2816 800 
L 2816 0 
L 1856 0 
Q 1194 0 917 276 
Q 641 553 641 1216 
L 641 2700 
L 84 2700 
L 84 3500 
L 641 3500 
L 641 4494 
L 1759 4494 
z
" transform="scale(0.015625)"/>
      <path id="DejaVuSans-Bold-52" d="M 2297 2597 
Q 2675 2597 2839 2737 
Q 3003 2878 3003 3200 
Q 3003 3519 2839 3656 
Q 2675 3794 2297 3794 
L 1791 3794 
L 1791 2597 
L 2297 2597 
z
M 1791 1766 
L 1791 0 
L 588 0 
L 588 4666 
L 2425 4666 
Q 3347 4666 3776 4356 
Q 4206 4047 4206 3378 
Q 4206 2916 3982 2619 
Q 3759 2322 3309 2181 
Q 3556 2125 3751 1926 
Q 3947 1728 4147 1325 
L 4800 0 
L 3519 0 
L 2950 1159 
Q 2778 1509 2601 1637 
Q 2425 1766 2131 1766 
L 1791 1766 
z
" transform="scale(0.015625)"/>
      <path id="DejaVuSans-Bold-76" d="M 97 3500 
L 1216 3500 
L 2088 1081 
L 2956 3500 
L 4078 3500 
L 2700 0 
L 1472 0 
L 97 3500 
z
" transform="scale(0.015625)"/>
      <path id="DejaVuSans-Bold-4d" d="M 588 4666 
L 2119 4666 
L 3181 2169 
L 4250 4666 
L 5778 4666 
L 5778 0 
L 4641 0 
L 4641 3413 
L 3566 897 
L 2803 897 
L 1728 3413 
L 1728 0 
L 588 0 
L 588 4666 
z
" transform="scale(0.015625)"/>
      <path id="DejaVuSans-Bold-6d" d="M 3781 2919 
Q 3994 3244 4286 3414 
Q 4578 3584 4928 3584 
Q 5531 3584 5847 3212 
Q 6163 2841 6163 2131 
L 6163 0 
L 5038 0 
L 5038 1825 
Q 5041 1866 5042 1909 
Q 5044 1953 5044 2034 
Q 5044 2406 4934 2573 
Q 4825 2741 4581 2741 
Q 4263 2741 4089 2478 
Q 3916 2216 3909 1719 
L 3909 0 
L 2784 0 
L 2784 1825 
Q 2784 2406 2684 2573 
Q 2584 2741 2328 2741 
Q 2006 2741 1831 2477 
Q 1656 2213 1656 1722 
L 1656 0 
L 531 0 
L 531 3500 
L 1656 3500 
L 1656 2988 
Q 1863 3284 2130 3434 
Q 2397 3584 2719 3584 
Q 3081 3584 3359 3409 
Q 3638 3234 3781 2919 
z
" transform="scale(0.015625)"/>
      <path id="DejaVuSans-Bold-25b3" d="M 553 -431 
L 4369 -431 
L 2459 3400 
L 553 -431 
z
M 19 -788 
L 2459 4113 
L 4903 -788 
L 19 -788 
z
" transform="scale(0.015625)"/>
     </defs>
     <use xlink:href="#DejaVuSans-Bold-49"/>
     <use xlink:href="#DejaVuSans-Bold-6e" x="37.207031"/>
     <use xlink:href="#DejaVuSans-Bold-64" x="108.398438"/>
     <use xlink:href="#DejaVuSans-Bold-69" x="179.980469"/>
     <use xlink:href="#DejaVuSans-Bold-72" x="214.257812"/>
     <use xlink:href="#DejaVuSans-Bold-65" x="263.574219"/>
     <use xlink:href="#DejaVuSans-Bold-63" x="331.396484"/>
     <use xlink:href="#DejaVuSans-Bold-74" x="390.673828"/>
     <use xlink:href="#DejaVuSans-Bold-20" x="438.476562"/>
     <use xlink:href="#DejaVuSans-Bold-52" x="473.291016"/>
     <use xlink:href="#DejaVuSans-Bold-69" x="550.292969"/>
     <use xlink:href="#DejaVuSans-Bold-76" x="584.570312"/>
     <use xlink:href="#DejaVuSans-Bold-65" x="649.755859"/>
     <use xlink:href="#DejaVuSans-Bold-72" x="717.578125"/>
     <use xlink:href="#DejaVuSans-Bold-20" x="766.894531"/>
     <use xlink:href="#DejaVuSans-Bold-4d" x="801.708984"/>
     <use xlink:href="#DejaVuSans-Bold-65" x="901.220703"/>
     <use xlink:href="#DejaVuSans-Bold-61" x="969.042969"/>
     <use xlink:href="#DejaVuSans-Bold-73" x="1036.523438"/>
     <use xlink:href="#DejaVuSans-Bold-75" x="1096.044922"/>
     <use xlink:href="#DejaVuSans-Bold-72" x="1167.236328"/>
     <use xlink:href="#DejaVuSans-Bold-65" x="1216.552734"/>
     <use xlink:href="#DejaVuSans-Bold-6d" x="1284.375"/>
     <use xlink:href="#DejaVuSans-Bold-65" x="1388.574219"/>
     <use xlink:href="#DejaVuSans-Bold-6e" x="1456.396484"/>
     <use xlink:href="#DejaVuSans-Bold-74" x="1527.587891"/>
     <use xlink:href="#DejaVuSans-Bold-20" x="1575.390625"/>
     <use xlink:href="#DejaVuSans-Bold-76" x="1610.205078"/>
     <use xlink:href="#DejaVuSans-Bold-69" x="1675.390625"/>
     <use xlink:href="#DejaVuSans-Bold-61" x="1709.667969"/>
     <use xlink:href="#DejaVuSans-Bold-20" x="1777.148438"/>
     <use xlink:href="#DejaVuSans-Bold-43" x="1811.962891"/>
     <use xlink:href="#DejaVuSans-Bold-6f" x="1885.351562"/>
     <use xlink:href="#DejaVuSans-Bold-6e" x="1954.052734"/>
     <use xlink:href="#DejaVuSans-Bold-67" x="2025.244141"/>
     <use xlink:href="#DejaVuSans-Bold-72" x="2096.826172"/>
     <use xlink:href="#DejaVuSans-Bold-75" x="2146.142578"/>
     <use xlink:href="#DejaVuSans-Bold-65" x="2217.333984"/>
     <use xlink:href="#DejaVuSans-Bold-6e" x="2285.15625"/>
     <use xlink:href="#DejaVuSans-Bold-74" x="2356.347656"/>
     <use xlink:href="#DejaVuSans-Bold-20" x="2404.150391"/>
     <use xlink:href="#DejaVuSans-Bold-25b3" x="2438.964844"/>
     <use xlink:href="#DejaVuSans-Bold-73" x="2515.869141"/>
    </g>
   </g>
  </g>
 </g>
 <defs>
  <clipPath id="p68bb422133">
   <rect x="7.2" y="90.702125" width="334.8" height="221.76"/>
  </clipPath>
 </defs>
</svg>
